<?xml version="1.0" encoding="UTF-8"?>
<svg id="Layer_2" xmlns="http://www.w3.org/2000/svg" viewBox="0 0 58.64 63.19">
  <defs>
    <style>
      .cls-1 {
        fill: #333;
      }
    </style>
  </defs>
  <g id="Back_x5F_hair">
    <path id="BackHair" class="cls-1" d="M17.44,56.25c-1.21,2.91,4.13,6.79,4.13,6.79h-8.16s-1.86-2.42-2.83-5.98c-3.39,4-.48,5.66,0,5.98s-6.4,0-6.4,0C-.52,57.39.07,52.7.07,52.7c-.65-7.27,3.72-14.06,3.72-14.06.48-7.27,1.94-19.88,1.94-19.88-.16-7.44,11.96-14.55,11.96-14.55C25.69.65,33.21,0,33.21,0c10.82,1.29,19.39,9.54,19.39,9.54,13.58,21.98,0,50.84,0,50.84l-6.27,1.29,2.87-10.26c-3.39,5.17-10.59,11.07-10.59,11.07l-14.9.57-6.29-6.79Z"/>
  </g>
</svg>