<?xml version="1.0" encoding="UTF-8"?>
<svg id="Layer_2" xmlns="http://www.w3.org/2000/svg" xmlns:xlink="http://www.w3.org/1999/xlink" viewBox="0 0 147.63 332.89">
  <defs>
    <style>
      .cls-1 {
        fill: url(#linear-gradient-2);
      }

      .cls-2 {
        fill: url(#linear-gradient-4);
      }

      .cls-3 {
        fill: url(#linear-gradient-3);
      }

      .cls-4 {
        fill: url(#linear-gradient-5);
      }

      .cls-5 {
        fill: #333;
      }

      .cls-6 {
        fill: #84572a;
      }

      .cls-7 {
        fill: url(#linear-gradient-6);
      }

      .cls-8 {
        fill: #b7885e;
      }

      .cls-9 {
        fill: url(#linear-gradient);
      }
    </style>
    <linearGradient id="linear-gradient" x1="-1.14" y1="109.82" x2="52.49" y2="102.24" gradientUnits="userSpaceOnUse">
      <stop offset="0" stop-color="#7c5433"/>
      <stop offset=".32" stop-color="#b7885e"/>
      <stop offset=".48" stop-color="#b1835a"/>
      <stop offset=".68" stop-color="#a2764f"/>
      <stop offset=".9" stop-color="#89603d"/>
      <stop offset="1" stop-color="#7c5433"/>
    </linearGradient>
    <linearGradient id="linear-gradient-2" x1="52.83" y1="44.82" x2="79.86" y2="141.72" gradientUnits="userSpaceOnUse">
      <stop offset=".07" stop-color="#7c5433"/>
      <stop offset=".08" stop-color="#835a38"/>
      <stop offset=".1" stop-color="#996e48"/>
      <stop offset=".13" stop-color="#aa7c54"/>
      <stop offset=".16" stop-color="#b3855b"/>
      <stop offset=".2" stop-color="#b7885e"/>
    </linearGradient>
    <linearGradient id="linear-gradient-3" x1="101.59" y1="94.84" x2="21.55" y2="63.84" gradientUnits="userSpaceOnUse">
      <stop offset=".03" stop-color="#7c5433"/>
      <stop offset=".16" stop-color="#946a45"/>
      <stop offset=".3" stop-color="#a77a53"/>
      <stop offset=".45" stop-color="#b3845b"/>
      <stop offset=".6" stop-color="#b7885e"/>
    </linearGradient>
    <linearGradient id="linear-gradient-4" x1="124.87" y1="154.89" x2="143.39" y2="143.15" gradientUnits="userSpaceOnUse">
      <stop offset=".04" stop-color="#7c5433"/>
      <stop offset=".17" stop-color="#966a45"/>
      <stop offset=".33" stop-color="#ae8057"/>
      <stop offset=".43" stop-color="#b7885e"/>
    </linearGradient>
    <linearGradient id="linear-gradient-5" x1="10.15" y1="73.74" x2="-1.76" y2="65.26" gradientUnits="userSpaceOnUse">
      <stop offset=".03" stop-color="#7c5433"/>
      <stop offset=".16" stop-color="#8e6440"/>
      <stop offset=".35" stop-color="#a47750"/>
      <stop offset=".54" stop-color="#b2835a"/>
      <stop offset=".7" stop-color="#b7885e"/>
    </linearGradient>
    <linearGradient id="linear-gradient-6" x1="1" y1="70.93" x2="25.49" y2="53.4" gradientUnits="userSpaceOnUse">
      <stop offset=".03" stop-color="#7c5433"/>
      <stop offset=".19" stop-color="#875e3b"/>
      <stop offset=".47" stop-color="#a57851"/>
      <stop offset=".6" stop-color="#b7885e"/>
    </linearGradient>
  </defs>
  <g id="Body">
    <path id="leftarm_x5F_bot" class="cls-9" d="M12.61,117.19c2.45,3.42,5.19,13.86,5.19,13.86l15.03-27.21,1.59-22.95-21.81,36.3Z"/>
    <path id="neck" class="cls-1" d="M60.31,65.45l1.6-21.69-12.18,10.69c.04,3.98,0,12.85,0,12.85"/>
    <path id="bottom_x5F_waist" class="cls-8" d="M65.28,99.53l2.45,16.79c.18-4.18,3.74-9.76,7.3-15.05l-9.74-1.74Z"/>
    <path id="righthand_x5F_torso" class="cls-3" d="M82.22,69.33s-4.98-5.42-21.9-3.88l4.96,34.08,9.74,1.74c3.3-4.91,6.6-9.57,7.2-12.62,4.69-9.57,0-19.32,0-19.32Z"/>
    <path id="Legs_x5F_upperbody" class="cls-8" d="M110.42,294.26c-8.73-37.91-17.5-59.77-26.31-65.59,0,0-3.03-25.58-3.83-40.37-.8-14.79-12.32-67.37-12.32-67.37l-.06-6.08-7.6-49.4-10.59,1.86s-5.49.97-12.62,4.12c-.35.16-.67.35-.98.56-9.01-1.08-11.85,6.54-11.85,6.54l-10.85,37.77c-.31.45,18.91-31.45,18.91-31.45.15,2.48.5,4.28.5,4.28h.13c-1.89,2.88-3.68,6.12-3.52,7.84.25,2.8,0,4.45,3.4,8.57l.48,16.57s-13.82,29.58-13.58,38.31c0,0-1.45,55.53-3.88,64.26-4.36,7.6,3.15,77.11,3.15,77.11,0,0-2.99,2.26-1.7,6.06l-3.91,16.46c-.4,1.68.54,3.4,2.18,3.96,5.81,2.01,18.66,6.11,21.45,4.06,3.64-2.67-1.54-8-5.17-12.12,0,0-.48-14.55-2.91-19.16,0,0,10.89-72.62,6.3-78.16l11.42-61.06s.94,1,3.28.03c0,0,8.7,48.99,13.06,63.9,3.68,12.58,19.28,36.73,27.76,48.37,8.49,11.64,10.06,24.13,8.61,28.01-1.45,3.88-15.3,17.81-15.3,17.81,0,0-9.94,7.11-3.39,8.97,8.17,2.32,18.51.89,22.31-3.15,3.87-4.12,4.9-13.38,8.95-15.02,5.98-2.42,6.71-4.04,7.19-5.98s-.16-6.87-8.73-10.51Z"/>
    <path id="BELLYBUTTON" class="cls-6" d="M46.25,128c2.54,1.91,3.21,1.95,3.21,1.95-1.13.13-3.05,2.14-3.05,2.14.3-2.12,2.18-2.17,2.18-2.17-2.28-.21-2.35-1.92-2.35-1.92Z"/>
    <path id="CLEAVAGE" class="cls-6" d="M48.36,87.52c-3.62,4.61-.42,10.91-.42,10.91-1.3-6.07.42-10.91.42-10.91Z"/>
    <path id="bra" class="cls-5" d="M32.83,89.13c5.33-1.37,12.45,2.34,14.63,4.28,2.99-2.29,7.5-4.89,12.36-4.58,7.76.48,9.7,6.74,10.99,8.35s5.39,2.34,5.39,2.34l-5.06,7.63c-12.21-5.8-38.31-1.62-38.31-1.62,0,0-3.56-4.36-3.4-8.57s3.4-7.84,3.4-7.84Z"/>
    <path id="underwear" class="cls-5" d="M24.91,141.87c6.41-.05,48.07.45,48.07.45l2.65,14.28s-15.54,1.48-23.74,4.87c-2.02.84-4.02,1.61-6.48.37-11.88-5.98-24.92-6.58-24.92-6.58,0,0,4.07-13.38,4.42-13.39Z"/>
    <path id="righthand_x5F_finger" class="cls-2" d="M119.27,155.45c13-4.65,15.96-7.28,15.96-7.28,2.49-.68,2.42.76,2.42.76-.32,1.71-8.55,5.96-8.55,5.96l-9.83.55Z"/>
    <path id="rightArm" class="cls-8" d="M68.44,84.86c4.11,10.41,21.06,32.25,21.06,32.25-.58,5.89,23.83,41.39,23.83,41.39-4.05,5.83-1.42,10.72-1.42,10.72,4.85,1.6,4.19,5.06,4.19,5.06-.23,1.6.54,2.13.54,2.13,3.54-.62,2.8-3.39,2.8-3.39,0,0-3.49-5.47-2.07-7.5s23.57-.42,23.57-.42c6.71,0,4.42-2.3,3.39-2.38-4.97-.37-17.44-2.74-17.44-2.74,0,0,14.35.71,17.91.75s3.97-2.72.14-2.64c-4.76.1-15.59-.92-15.59-.92,8.6-.26,12.53-.24,15.57-.95,2.76-.64,3.02-2.02.96-2.25-3.11-.35-26.6,1.47-26.6,1.47-4.74-3.85-7.97-32.67-20.45-42.55-2.5-7.01-7.18-24.55-10.48-34.66-3.3-10.11-5.7-15.41-16.26-13.62-12.12,2.06-3.64,20.23-3.64,20.23Z"/>
    <path id="leftArm_x5F_thumb" class="cls-4" d="M6.65,75.47c-.79-5.01-5.75-8.89-5.75-8.89-2.01-2.42,0-2.55,0-2.55,4.18.24,6.2,4.85,6.2,4.85l-.44,6.59Z"/>
    <path id="leftArm_x5F_finger" class="cls-7" d="M9.04,68.57c5.57-6.35,11.26-11.4,9.31-12.59-2.34-1.43-11.86,11.73-11.86,11.73l2.55.86Z"/>
    <path id="leftArmbot" class="cls-8" d="M6.65,66.45l6.06-2.41c6.55,2.85,10.11,4.52,11.63,5.56s.75,1.8-1.2,1.43c-6.63-1.27-10.43-2.51-10.43-2.51,7.52,5.09,7.94,8.49,7.94,8.49-1.12,1.94-2.97,0-2.97,0l-7.15-5.69c3.64,6.18,2.18,12.24,2.18,12.24l-6.06,5.58c0,9.7,6.42,25.3,6.42,25.3,4.49,6.79,4.73,8.32,4.73,8.32,2.78,11.15-6.55,19.88-11.48,12.85-2.9-4.13-6.71-42.84-5.01-46.47s5.33-22.68,5.33-22.68Z"/>
    <path id="HEad" class="cls-8" d="M31.3,28.2c-.46,5.68-.73,13.59.7,17.87,2.39,7.18,7.78,16.75,14.36,14.96s16.75-11.97,19.15-15.56c1.77-2.65,2.56-10.85,2.85-14.95.1-1.39.71-2.71,1.77-3.63,8.34-7.27,1.29-18.2-.98-21.27-.45-.61-1.13-.96-1.67-1.48C63.28.08,43.91-4.82,33.63,10.12c-4.88,7.09-2.19,16.3-2.33,18.08Z"/>
  </g>
</svg>