<?xml version="1.0" encoding="UTF-8"?>
<svg id="Layer_2" xmlns="http://www.w3.org/2000/svg" viewBox="0 0 72.02 126.63">
  <defs>
    <style>
      .cls-1 {
        fill: #c39;
      }
    </style>
  </defs>
  <g id="dress_x5F_short">
    <path class="cls-1" d="M32.68,26.25c5.5.65,15.92-19.45,17.86-26.08,4.97-.38,4.28-.01,4.28-.01,0,0-3.55,18.84-1.77,25.95s7.95,8.4,7.95,8.4c-4.59,7.04-8.11,21.18-8.11,21.18,4.69,4.69,23.74,67.43,18.1,68.86-18.62,4.72-60.16.19-70.5-1.7-3.39-10.67,11.82-62.48,17.48-67.17-.65-8.41-.89-15.36-.89-15.36-6.14-4.27-5.62-15.84-1.09-20.53,3.15-6.97,4.93-12.84,4.93-12.84,0,0,3.24-1.97,3.23-1.47-.77,23.35,8.54,20.75,8.54,20.75Z"/>
  </g>
</svg>