<?xml version="1.0" encoding="UTF-8"?>
<svg id="Layer_2" xmlns="http://www.w3.org/2000/svg" viewBox="0 0 35.39 33.43">
  <defs>
    <style>
      .cls-1 {
        fill: #fff;
      }

      .cls-2 {
        fill: #494026;
      }

      .cls-3 {
        fill: #161512;
      }

      .cls-4 {
        fill: #5b4b39;
      }

      .cls-5 {
        fill: #84572a;
      }

      .cls-6 {
        fill: #dbcfb9;
      }

      .cls-7 {
        fill: #c39;
      }
    </style>
  </defs>
  <g id="face_x5F_1">
    <g id="Mouth">
      <path id="Bottom_LIp" class="cls-7" d="M24.98,23.44c-.91,1.14-5.83,3.65-9.78,4.86.19,1.67,2.13,5.17,4.44,5.13,2.62-.05,5.83-4.07,5.33-9.99Z"/>
      <path id="Teeth" class="cls-1" d="M15.21,28.3l9.5-4.44s.19,4.79-3.46,7.18-6.04-2.74-6.04-2.74Z"/>
      <path id="TOP_LIP" class="cls-7" d="M14.87,26.06c-2.87.58-3.87,2.54.34,2.25s8.87-3.72,9.78-4.86c0,0-9.08,2.4-10.12,2.61Z"/>
    </g>
    <g id="right_x5F_eye">
      <path id="right_x5F_schlera" class="cls-1" d="M32.17,9.46c-1.3,1.84-7.54,6.21-11.73-.89,3.46-4.72,7.51-2.94,7.51-2.94,3.25.33,4.22,3.82,4.22,3.82Z"/>
      <ellipse id="right_x5F_iris" class="cls-2" cx="28.88" cy="8.16" rx="1.89" ry="2.28"/>
      <ellipse id="right_x5F_pupil" class="cls-3" cx="29.2" cy="7.93" rx="1.57" ry="1.89"/>
      <ellipse id="right_x5F_shine" class="cls-6" cx="29.4" cy="7.3" rx="1.05" ry="1.27"/>
      <path id="right_x5F_lash" d="M32,6.58c-2.66-2.8-7.48-3.14-10.09-.15-.45.51-1.18,1.43-1.47,2.15,0,0,7.06-6.48,11.73.89,0,.01.01.02.02.03,1.99-.16,3.2-5.64,3.2-5.64,0,0-1.21,2.39-3.39,2.73Z"/>
    </g>
    <g id="left_x5F_eye">
      <path id="left_x5F_schlera" class="cls-1" d="M4.41,13.15c1.79,1.37,9.5,4.46,11.42-3.55-4.01-3.52-8.3-1.44-8.3-1.44-3.01,1.27-3.12,4.99-3.12,4.99Z"/>
      <ellipse id="left_x5F_iris" class="cls-2" cx="12.55" cy="10.44" rx="1.89" ry="2.28"/>
      <ellipse id="left_x5F_pupil" class="cls-3" cx="12.87" cy="10.06" rx="1.57" ry="1.89"/>
      <ellipse id="left_x5F_shine" class="cls-6" cx="13.07" cy="9.43" rx="1.05" ry="1.27"/>
      <path id="left_x5F_lash" d="M15.82,9.6c-3.08-4.29-9.62-3.23-11.9.67-2.19.17-3.92-1.88-3.92-1.88,0,0,2.43,5.06,4.41,4.76,2.85-8.29,11.42-3.55,11.42-3.55Z"/>
    </g>
    <path id="nose" class="cls-5" d="M12.84,19.74c-.29.98-.4,1.31.24,1.71,1.31.83,3.12,1.17,4.29.41-.23,1.03-1.62,2.26-3.73,1.11-.5-.27-.87-.58-1.15-.9-.9-1.03.36-2.33.36-2.33Z"/>
    <path id="right_x5F_brow" class="cls-4" d="M33.25,2.82S29.46-.84,24.69.18c-4.77,1.01-5.99,5.36-5.99,5.36,0,0,3.57-3.23,7.06-3.85s7.48,1.13,7.48,1.13Z"/>
    <path id="left_x5F_brow" class="cls-4" d="M4.67,6.83s1.53-5.24,5.58-4.79,5.58,3.96,5.58,3.96c0,0-3.43-2.27-6.39-2.49s-4.77,3.32-4.77,3.32Z"/>
  </g>
</svg>