<?xml version="1.0" encoding="UTF-8"?>
<svg id="Layer_2" xmlns="http://www.w3.org/2000/svg" viewBox="0 0 60.38 66.15">
  <defs>
    <style>
      .cls-1 {
        fill: #5b4b39;
      }

      .cls-2 {
        fill: #c39;
      }
    </style>
  </defs>
  <g id="front_x5F_hair">
    <path id="front_x5F_hair-2" data-name="front_x5F_hair" class="cls-1" d="M58.81,19.01C55.51,6.53,44.19-5.76,22.08,2.9-.03,11.57,3.5,17.61,5.44,22.67c1.49,3.91-.23,14.36-2.85,20.4-2.62,6.04-4.1,20.12-.23,23.08,0-6-.06-6.96,1.44-12.57,1.21,5.79,4.31,8.06,4.31,8.06,0,0-3.47-3.8-1-17.05,2.53-18.87,2.36-15.86,2.54-20.65,11.17-6.9,11.32-10.09,11.32-10.09,2.75,4.56,18.89,7.05,20.94,6.94,2.05-.11,3.62,38.84-1.51,43.05,9.35.57,11.95-12.09,11.95-12.09,0,0,.91,5.24,0,7.98l-.91,2.74c6.95-1.48,8.89-16.3,8.89-16.3,0,0,.42-19.78-1.53-27.15Z"/>
    <ellipse id="hairclipbot" class="cls-2" cx="39.82" cy="17" rx="5.47" ry="1.69" transform="translate(6.75 44.94) rotate(-63.31)"/>
    <ellipse id="haircliptop" class="cls-2" cx="35.15" cy="15.8" rx="5.47" ry="1.69" transform="translate(5.24 40.11) rotate(-63.31)"/>
  </g>
</svg>