<?xml version="1.0" encoding="UTF-8"?>
<svg id="Layer_2" xmlns="http://www.w3.org/2000/svg" viewBox="0 0 106.07 40.85">
  <defs>
    <style>
      .cls-1 {
        fill: #c39;
      }
    </style>
  </defs>
  <g id="shoes_x5F_heels">
    <g id="left_x5F_heel">
      <polygon class="cls-1" points="3.78 13.94 .66 29.37 1.61 30.04 4.13 15.63 3.78 13.94"/>
      <path class="cls-1" d="M1.06,28.32c-5.82,9.86,14.23,12.36,14.23,12.36,20.37,1.87,3.39-12.68,3.39-12.68l-17.62.32Z"/>
      <polygon class="cls-1" points="5.6 7.13 16.75 6.92 16.39 9 4.8 9.17 5.6 7.13"/>
    </g>
    <g id="right_x5F_heel">
      <path class="cls-1" d="M97.24,2.06c-2.18,3.39,1.52,14.85,1.52,14.85-6.55,6.79-7.88,14.82-7.88,14.82l-20.37-3.61c-8.43,6.79-8.06,9.34-8.06,9.34,10.67,4.12,24.17-1.46,24.17-1.46,4.26-1.69,4.71-1.68,5.49-4.38,1.15-3.99,1.65-7.62,6.47-11.74.02-.02.04-.03.06-.05,1.09-.91,2.74-.13,2.78,1.29.4,13.38.12,18.04.12,18.04h1.94l2.49-26.59c1.21-6.93-8.73-10.51-8.73-10.51Z"/>
      <polygon class="cls-1" points="86.61 4.59 96.78 0 97.26 2.05 86.68 6.78 86.61 4.59"/>
    </g>
  </g>
</svg>